<svg xmlns="http://www.w3.org/2000/svg" xmlns:xlink="http://www.w3.org/1999/xlink" viewBox="0 0 48 48"><defs><style>.a{fill:none;}.b{clip-path:url(#a);}.c{fill:#bc1c13;}.d{fill:#fff;}.e{clip-path:url(#b);}.f{fill:#0e781b;}.g{fill:#1c1c1c;}.h{clip-path:url(#c);}</style><clipPath id="a"><circle class="a" cx="72" cy="24" r="24"/></clipPath><clipPath id="b"><circle class="a" cx="24" cy="24" r="24"/></clipPath><clipPath id="c"><circle class="a" cx="24" cy="-24" r="24"/></clipPath></defs><title>bg</title><g class="b"><rect class="c" x="48" width="24" height="48"/><path class="d" d="M72,3A21,21,0,1,1,51,24,21,21,0,0,1,72,3m0-3A24,24,0,1,0,96,24,24,24,0,0,0,72,0Z"/></g><g class="e"><rect class="f" x="24" width="24" height="48"/><rect class="g" width="24" height="48"/><path class="d" d="M24,3A21,21,0,1,1,3,24,21,21,0,0,1,24,3m0-3A24,24,0,1,0,48,24,24,24,0,0,0,24,0Z"/></g><g class="h"><rect class="c" x="24" y="-48" width="24" height="48"/><rect class="g" y="-48" width="24" height="48"/><path class="d" d="M24-45A21,21,0,0,1,45-24,21,21,0,0,1,24-3,21,21,0,0,1,3-24,21,21,0,0,1,24-45m0-3A24,24,0,0,0,0-24,24,24,0,0,0,24,0,24,24,0,0,0,48-24,24,24,0,0,0,24-48Z"/></g></svg>