<svg xmlns="http://www.w3.org/2000/svg" xmlns:xlink="http://www.w3.org/1999/xlink" viewBox="0 0 48 48"><defs><style>.a{fill:none;}.b{clip-path:url(#a);}.c{fill:#ffffdf;}.d{clip-path:url(#b);}.e{fill:#007da7;}.f{clip-path:url(#c);}.g{fill:#9b9b9b;}.h{fill:#fff;}</style><clipPath id="a"><circle class="a" cx="-24" cy="72" r="24"/></clipPath><clipPath id="b"><circle class="a" cx="-24" cy="24" r="24"/></clipPath><clipPath id="c"><circle class="a" cx="-24" cy="-24" r="24"/></clipPath></defs><title>colorless</title><g class="b"><path class="c" d="M.48,72A24.48,24.48,0,0,0-24,47.52V72Z"/></g><g class="d"><path class="e" d="M-24,24V48.48A24.48,24.48,0,0,0,.48,24Z"/><path class="c" d="M.48,24A24.48,24.48,0,0,0-24-.48V24Z"/></g><g class="f"><path class="e" d="M-24-24V.48A24.48,24.48,0,0,0,.48-24Z"/></g><path class="g" d="M24,46.5A22.5,22.5,0,1,1,46.5,24,22.53,22.53,0,0,1,24,46.5Z"/><path class="h" d="M24,3A21,21,0,1,1,3,24,21,21,0,0,1,24,3m0-3A24,24,0,1,0,48,24,24,24,0,0,0,24,0Z"/></svg>