<svg xmlns="http://www.w3.org/2000/svg" xmlns:xlink="http://www.w3.org/1999/xlink" viewBox="0 0 48 48"><defs><style>.a{fill:none;}.b{clip-path:url(#a);}.c{fill:#0e781b;}.d{fill:#bc1c13;}.e{fill:#fff;}.f{clip-path:url(#b);}.g{clip-path:url(#c);}</style><clipPath id="a"><circle class="a" cx="24" cy="24" r="24"/></clipPath><clipPath id="b"><circle class="a" cx="72" cy="24" r="24"/></clipPath><clipPath id="c"><circle class="a" cx="72" cy="-24" r="24"/></clipPath></defs><title>rg</title><g class="b"><rect class="c" x="24" width="24" height="48"/><rect class="d" width="24" height="48"/><path class="e" d="M24,3A21,21,0,1,1,3,24,21,21,0,0,1,24,3m0-3A24,24,0,1,0,48,24,24,24,0,0,0,24,0Z"/></g><g class="f"><path class="c" d="M72-.48A24.48,24.48,0,0,0,47.52,24H72Z"/><path class="d" d="M47.52,24A24.48,24.48,0,0,0,72,48.48V24Z"/></g><g class="g"><path class="d" d="M47.52-24A24.48,24.48,0,0,0,72,.48V-24Z"/></g></svg>