<svg xmlns="http://www.w3.org/2000/svg" xmlns:xlink="http://www.w3.org/1999/xlink" viewBox="0 0 432 240.95"><defs><style>.a{fill:none;}.b{fill:gray;}.c{fill:#fff;}.d{fill:#999;}.e{fill:#ffffdf;}.f{fill:#007da7;}.g{fill:#1c1c1c;}.h{fill:#bc1c13;}.i{fill:#0e781b;}.j{clip-path:url(#a);}.k{clip-path:url(#b);}.l{clip-path:url(#c);}.m{clip-path:url(#d);}.n{clip-path:url(#e);}.o{clip-path:url(#f);}.p{clip-path:url(#g);}.q{clip-path:url(#h);}.r{clip-path:url(#i);}.s{clip-path:url(#j);}.t{clip-path:url(#k);}.u{clip-path:url(#l);}.v{clip-path:url(#m);}.w{clip-path:url(#n);}.x{clip-path:url(#o);}.y{clip-path:url(#p);}.z{clip-path:url(#q);}.aa{clip-path:url(#r);}.ab{clip-path:url(#s);}.ac{clip-path:url(#t);}.ad{clip-path:url(#u);}.ae{clip-path:url(#v);}.af{clip-path:url(#w);}.ag{clip-path:url(#x);}.ah{clip-path:url(#y);}.ai{clip-path:url(#z);}.aj{fill:#9b9b9b;}</style><clipPath id="a" transform="translate(0 0.48)"><circle class="a" cx="312" cy="216" r="24"/></clipPath><clipPath id="b" transform="translate(0 0.48)"><circle class="a" cx="264" cy="216" r="24"/></clipPath><clipPath id="c" transform="translate(0 0.48)"><circle class="a" cx="264" cy="168" r="24"/></clipPath><clipPath id="d" transform="translate(0 0.48)"><circle class="a" cx="216" cy="216" r="24"/></clipPath><clipPath id="e" transform="translate(0 0.48)"><circle class="a" cx="216" cy="168" r="24"/></clipPath><clipPath id="f" transform="translate(0 0.48)"><circle class="a" cx="216" cy="120" r="24"/></clipPath><clipPath id="g" transform="translate(0 0.48)"><circle class="a" cx="168" cy="72" r="24"/></clipPath><clipPath id="h" transform="translate(0 0.48)"><circle class="a" cx="168" cy="120" r="24"/></clipPath><clipPath id="i" transform="translate(0 0.48)"><circle class="a" cx="168" cy="168" r="24"/></clipPath><clipPath id="j" transform="translate(0 0.48)"><circle class="a" cx="168" cy="216" r="24"/></clipPath><clipPath id="k" transform="translate(0 0.48)"><circle class="a" cx="264" cy="72" r="24"/></clipPath><clipPath id="l" transform="translate(0 0.48)"><circle class="a" cx="264" cy="120" r="24"/></clipPath><clipPath id="m" transform="translate(0 0.48)"><circle class="a" cx="312" cy="24" r="24"/></clipPath><clipPath id="n" transform="translate(0 0.48)"><circle class="a" cx="312" cy="72" r="24"/></clipPath><clipPath id="o" transform="translate(0 0.48)"><circle class="a" cx="312" cy="120" r="24"/></clipPath><clipPath id="p" transform="translate(0 0.48)"><circle class="a" cx="312" cy="168" r="24"/></clipPath><clipPath id="q" transform="translate(0 0.48)"><circle class="a" cx="216" cy="72" r="24"/></clipPath><clipPath id="r" transform="translate(0 0.48)"><circle class="a" cx="264" cy="24" r="24"/></clipPath><clipPath id="s" transform="translate(0 0.48)"><circle class="a" cx="216" cy="24" r="24"/></clipPath><clipPath id="t" transform="translate(0 0.48)"><circle class="a" cx="168" cy="24" r="24"/></clipPath><clipPath id="u" transform="translate(0 0.48)"><circle class="a" cx="360" cy="216" r="24"/></clipPath><clipPath id="v" transform="translate(0 0.48)"><circle class="a" cx="360" cy="168" r="24"/></clipPath><clipPath id="w" transform="translate(0 0.48)"><circle class="a" cx="360" cy="120" r="24"/></clipPath><clipPath id="x" transform="translate(0 0.48)"><circle class="a" cx="360" cy="72" r="24"/></clipPath><clipPath id="y" transform="translate(0 0.48)"><circle class="a" cx="360" cy="24" r="24"/></clipPath><clipPath id="z" transform="translate(0 0.48)"><circle class="a" cx="408" cy="24" r="24"/></clipPath></defs><title>sprites</title><path class="b" d="M47.21,91.39,33,77.15a2.69,2.69,0,0,0-2.38-.75L28,73.79A15.8,15.8,0,1,0,25.79,76l2.61,2.61A2.69,2.69,0,0,0,29.15,81L43.39,95.21a2.7,2.7,0,0,0,3.82-3.82ZM15.78,76.48a12.7,12.7,0,1,1,12.7-12.7A12.71,12.71,0,0,1,15.78,76.48Z" transform="translate(0 0.48)"/><polygon class="c" points="96 198.17 90.3 192.48 72 210.78 53.7 192.48 48 198.17 66.3 216.48 48 234.78 53.7 240.48 72 222.17 90.3 240.48 96 234.78 77.7 216.48 96 198.17"/><path class="c" d="M75.53,148.25l.68-4.25-9.62,6,7.25,8.72.68-4.23a15.7,15.7,0,1,1-16,7.35l-5.37-3.27a22,22,0,1,0,22.34-10.31Z" transform="translate(0 0.48)"/><path class="b" d="M40,2a2,2,0,0,0-2-2H10A2,2,0,0,0,8,2V46a2,2,0,0,0,2,2H38a2,2,0,0,0,2-2ZM37,43H34v3H32V43H29V41h3V38h2v3h3Zm0-18H11V4H37Z" transform="translate(0 0.48)"/><path class="c" d="M88,2a2,2,0,0,0-2-2H58a2,2,0,0,0-2,2V46a2,2,0,0,0,2,2H86a2,2,0,0,0,2-2ZM59,4H85V25H59Z" transform="translate(0 0.48)"/><line class="d" x1="44.7" y1="105.77" x2="3.3" y2="105.77"/><path class="b" d="M44.7,108.59H3.3a3.3,3.3,0,1,1,0-6.59H44.7a3.3,3.3,0,1,1,0,6.59Z" transform="translate(0 0.48)"/><line class="d" x1="44.7" y1="120.48" x2="3.3" y2="120.48"/><path class="b" d="M44.7,123.3H3.3a3.3,3.3,0,1,1,0-6.59H44.7a3.3,3.3,0,1,1,0,6.59Z" transform="translate(0 0.48)"/><line class="d" x1="44.7" y1="135.18" x2="3.3" y2="135.18"/><path class="b" d="M44.7,138H3.3a3.3,3.3,0,1,1,0-6.59H44.7a3.3,3.3,0,1,1,0,6.59Z" transform="translate(0 0.48)"/><path class="e" d="M120,46.5A22.5,22.5,0,1,1,142.5,24,22.53,22.53,0,0,1,120,46.5Z" transform="translate(0 0.48)"/><path class="c" d="M120,3A21,21,0,1,1,99,24,21,21,0,0,1,120,3m0-3a24,24,0,1,0,24,24A24,24,0,0,0,120,0Z" transform="translate(0 0.48)"/><path class="f" d="M120,94.5A22.5,22.5,0,1,1,142.5,72,22.53,22.53,0,0,1,120,94.5Z" transform="translate(0 0.48)"/><path class="c" d="M120,51A21,21,0,1,1,99,72a21,21,0,0,1,21-21m0-3a24,24,0,1,0,24,24,24,24,0,0,0-24-24Z" transform="translate(0 0.48)"/><path class="g" d="M120,142.5A22.5,22.5,0,1,1,142.5,120,22.53,22.53,0,0,1,120,142.5Z" transform="translate(0 0.48)"/><path class="c" d="M120,99a21,21,0,1,1-21,21,21,21,0,0,1,21-21m0-3a24,24,0,1,0,24,24,24,24,0,0,0-24-24Z" transform="translate(0 0.48)"/><path class="h" d="M120,190.5A22.5,22.5,0,1,1,142.5,168,22.53,22.53,0,0,1,120,190.5Z" transform="translate(0 0.48)"/><path class="c" d="M120,147a21,21,0,1,1-21,21,21,21,0,0,1,21-21m0-3a24,24,0,1,0,24,24,24,24,0,0,0-24-24Z" transform="translate(0 0.48)"/><path class="i" d="M120,238.5A22.5,22.5,0,1,1,142.5,216,22.53,22.53,0,0,1,120,238.5Z" transform="translate(0 0.48)"/><path class="c" d="M120,195a21,21,0,1,1-21,21,21,21,0,0,1,21-21m0-3a24,24,0,1,0,24,24,24,24,0,0,0-24-24Z" transform="translate(0 0.48)"/><g class="j"><rect class="i" x="312" y="192.48" width="24" height="48"/><rect class="h" x="288" y="192.48" width="24" height="48"/><path class="c" d="M312,195a21,21,0,1,1-21,21,21,21,0,0,1,21-21m0-3a24,24,0,1,0,24,24,24,24,0,0,0-24-24Z" transform="translate(0 0.48)"/></g><g class="k"><rect class="i" x="264" y="192.48" width="24" height="48"/><rect class="g" x="240" y="192.48" width="24" height="48"/><path class="c" d="M264,195a21,21,0,1,1-21,21,21,21,0,0,1,21-21m0-3a24,24,0,1,0,24,24,24,24,0,0,0-24-24Z" transform="translate(0 0.48)"/></g><g class="l"><rect class="h" x="264" y="144.48" width="24" height="48"/><rect class="g" x="240" y="144.48" width="24" height="48"/><path class="c" d="M264,147a21,21,0,1,1-21,21,21,21,0,0,1,21-21m0-3a24,24,0,1,0,24,24,24,24,0,0,0-24-24Z" transform="translate(0 0.48)"/></g><g class="m"><rect class="i" x="216" y="192.48" width="24" height="48"/><rect class="f" x="192" y="192.48" width="24" height="48"/><path class="c" d="M216,195a21,21,0,1,1-21,21,21,21,0,0,1,21-21m0-3a24,24,0,1,0,24,24,24,24,0,0,0-24-24Z" transform="translate(0 0.48)"/></g><g class="n"><rect class="h" x="216" y="144.48" width="24" height="48"/><rect class="f" x="192" y="144.48" width="24" height="48"/><path class="c" d="M216,147a21,21,0,1,1-21,21,21,21,0,0,1,21-21m0-3a24,24,0,1,0,24,24,24,24,0,0,0-24-24Z" transform="translate(0 0.48)"/></g><g class="o"><rect class="g" x="216" y="96.48" width="24" height="48"/><rect class="f" x="192" y="96.48" width="24" height="48"/><path class="c" d="M216,99a21,21,0,1,1-21,21,21,21,0,0,1,21-21m0-3a24,24,0,1,0,24,24,24,24,0,0,0-24-24Z" transform="translate(0 0.48)"/></g><g class="p"><rect class="f" x="168" y="48.48" width="24" height="48"/><rect class="e" x="144" y="48.48" width="24" height="48"/><path class="c" d="M168,51a21,21,0,1,1-21,21,21,21,0,0,1,21-21m0-3a24,24,0,1,0,24,24,24,24,0,0,0-24-24Z" transform="translate(0 0.48)"/></g><g class="q"><rect class="g" x="168" y="96.48" width="24" height="48"/><rect class="e" x="144" y="96.48" width="24" height="48"/><path class="c" d="M168,99a21,21,0,1,1-21,21,21,21,0,0,1,21-21m0-3a24,24,0,1,0,24,24,24,24,0,0,0-24-24Z" transform="translate(0 0.48)"/></g><g class="r"><rect class="h" x="168" y="144.48" width="24" height="48"/><rect class="e" x="144" y="144.48" width="24" height="48"/><path class="c" d="M168,147a21,21,0,1,1-21,21,21,21,0,0,1,21-21m0-3a24,24,0,1,0,24,24,24,24,0,0,0-24-24Z" transform="translate(0 0.48)"/></g><g class="s"><rect class="i" x="168" y="192.48" width="24" height="48"/><rect class="e" x="144" y="192.48" width="24" height="48"/><path class="c" d="M168,195a21,21,0,1,1-21,21,21,21,0,0,1,21-21m0-3a24,24,0,1,0,24,24,24,24,0,0,0-24-24Z" transform="translate(0 0.48)"/></g><g class="t"><path class="i" d="M264,48.37a23.63,23.63,0,0,0-20.46,35.45L264,72Z" transform="translate(0 0.48)"/><path class="f" d="M243.54,83.82a23.63,23.63,0,0,0,40.93,0L264,72Z" transform="translate(0 0.48)"/><path class="e" d="M264,48.37V72l20.46,11.82A23.63,23.63,0,0,0,264,48.37Z" transform="translate(0 0.48)"/><path class="c" d="M264,51a21,21,0,1,1-21,21,21,21,0,0,1,21-21m0-3a24,24,0,1,0,24,24,24,24,0,0,0-24-24Z" transform="translate(0 0.48)"/></g><g class="u"><path class="i" d="M264,96.37a23.63,23.63,0,0,0-20.46,35.45L264,120Z" transform="translate(0 0.48)"/><path class="h" d="M243.54,131.82a23.63,23.63,0,0,0,40.93,0L264,120Z" transform="translate(0 0.48)"/><path class="e" d="M264,96.37V120l20.46,11.82A23.63,23.63,0,0,0,264,96.37Z" transform="translate(0 0.48)"/><path class="c" d="M264,99a21,21,0,1,1-21,21,21,21,0,0,1,21-21m0-3a24,24,0,1,0,24,24,24,24,0,0,0-24-24Z" transform="translate(0 0.48)"/></g><g class="v"><path class="h" d="M312,.37a23.63,23.63,0,0,0-20.46,35.45L312,24Z" transform="translate(0 0.48)"/><path class="g" d="M291.54,35.82a23.63,23.63,0,0,0,40.93,0L312,24Z" transform="translate(0 0.48)"/><path class="f" d="M312,.37V24l20.46,11.82A23.63,23.63,0,0,0,312,.37Z" transform="translate(0 0.48)"/><path class="c" d="M312,3a21,21,0,1,1-21,21A21,21,0,0,1,312,3m0-3a24,24,0,1,0,24,24A24,24,0,0,0,312,0Z" transform="translate(0 0.48)"/></g><g class="w"><path class="i" d="M312,48.37a23.63,23.63,0,0,0-20.46,35.45L312,72Z" transform="translate(0 0.48)"/><path class="g" d="M291.54,83.82a23.63,23.63,0,0,0,40.93,0L312,72Z" transform="translate(0 0.48)"/><path class="f" d="M312,48.37V72l20.46,11.82A23.63,23.63,0,0,0,312,48.37Z" transform="translate(0 0.48)"/><path class="c" d="M312,51a21,21,0,1,1-21,21,21,21,0,0,1,21-21m0-3a24,24,0,1,0,24,24,24,24,0,0,0-24-24Z" transform="translate(0 0.48)"/></g><g class="x"><path class="i" d="M312,96.37a23.63,23.63,0,0,0-20.46,35.45L312,120Z" transform="translate(0 0.48)"/><path class="h" d="M291.54,131.82a23.63,23.63,0,0,0,40.93,0L312,120Z" transform="translate(0 0.48)"/><path class="f" d="M312,96.37V120l20.46,11.82A23.63,23.63,0,0,0,312,96.37Z" transform="translate(0 0.48)"/><path class="c" d="M312,99a21,21,0,1,1-21,21,21,21,0,0,1,21-21m0-3a24,24,0,1,0,24,24,24,24,0,0,0-24-24Z" transform="translate(0 0.48)"/></g><g class="y"><path class="i" d="M312,144.37a23.63,23.63,0,0,0-20.46,35.45L312,168Z" transform="translate(0 0.48)"/><path class="h" d="M291.54,179.82a23.63,23.63,0,0,0,40.93,0L312,168Z" transform="translate(0 0.48)"/><path class="g" d="M312,144.37V168l20.46,11.82A23.63,23.63,0,0,0,312,144.37Z" transform="translate(0 0.48)"/><path class="c" d="M312,147a21,21,0,1,1-21,21,21,21,0,0,1,21-21m0-3a24,24,0,1,0,24,24,24,24,0,0,0-24-24Z" transform="translate(0 0.48)"/></g><g class="z"><path class="h" d="M216,48.37a23.63,23.63,0,0,0-20.46,35.45L216,72Z" transform="translate(0 0.48)"/><path class="g" d="M195.54,83.82a23.63,23.63,0,0,0,40.93,0L216,72Z" transform="translate(0 0.48)"/><path class="e" d="M216,48.37V72l20.46,11.82A23.63,23.63,0,0,0,216,48.37Z" transform="translate(0 0.48)"/><path class="c" d="M216,51a21,21,0,1,1-21,21,21,21,0,0,1,21-21m0-3a24,24,0,1,0,24,24,24,24,0,0,0-24-24Z" transform="translate(0 0.48)"/></g><g class="aa"><path class="i" d="M264,.37a23.63,23.63,0,0,0-20.46,35.45L264,24Z" transform="translate(0 0.48)"/><path class="f" d="M243.54,35.82a23.63,23.63,0,0,0,40.93,0L264,24Z" transform="translate(0 0.48)"/><path class="e" d="M264,.37V24l20.46,11.82A23.63,23.63,0,0,0,264,.37Z" transform="translate(0 0.48)"/><path class="c" d="M264,3a21,21,0,1,1-21,21A21,21,0,0,1,264,3m0-3a24,24,0,1,0,24,24A24,24,0,0,0,264,0Z" transform="translate(0 0.48)"/></g><g class="ab"><path class="h" d="M216,.37a23.63,23.63,0,0,0-20.46,35.45L216,24Z" transform="translate(0 0.48)"/><path class="f" d="M195.54,35.82a23.63,23.63,0,0,0,40.93,0L216,24Z" transform="translate(0 0.48)"/><path class="e" d="M216,.37V24l20.46,11.82A23.63,23.63,0,0,0,216,.37Z" transform="translate(0 0.48)"/><path class="c" d="M216,3a21,21,0,1,1-21,21A21,21,0,0,1,216,3m0-3a24,24,0,1,0,24,24A24,24,0,0,0,216,0Z" transform="translate(0 0.48)"/></g><g class="ac"><path class="g" d="M168,.37a23.63,23.63,0,0,0-20.46,35.45L168,24Z" transform="translate(0 0.48)"/><path class="f" d="M147.54,35.82a23.63,23.63,0,0,0,40.93,0L168,24Z" transform="translate(0 0.48)"/><path class="e" d="M168,.37V24l20.46,11.82A23.63,23.63,0,0,0,168,.37Z" transform="translate(0 0.48)"/><path class="c" d="M168,3a21,21,0,1,1-21,21A21,21,0,0,1,168,3m0-3a24,24,0,1,0,24,24A24,24,0,0,0,168,0Z" transform="translate(0 0.48)"/></g><g class="ad"><path class="i" d="M360,191.52A24.48,24.48,0,0,0,335.52,216H360Z" transform="translate(0 0.48)"/><path class="h" d="M335.52,216A24.48,24.48,0,0,0,360,240.48V216Z" transform="translate(0 0.48)"/><path class="g" d="M360,216v24.48A24.48,24.48,0,0,0,384.48,216Z" transform="translate(0 0.48)"/><path class="f" d="M384.48,216A24.48,24.48,0,0,0,360,191.52V216Z" transform="translate(0 0.48)"/><path class="c" d="M360,195a21,21,0,1,1-21,21,21,21,0,0,1,21-21m0-3a24,24,0,1,0,24,24,24,24,0,0,0-24-24Z" transform="translate(0 0.48)"/></g><g class="ae"><path class="i" d="M360,143.52A24.48,24.48,0,0,0,335.52,168H360Z" transform="translate(0 0.48)"/><path class="h" d="M335.52,168A24.48,24.48,0,0,0,360,192.48V168Z" transform="translate(0 0.48)"/><path class="g" d="M360,168v24.48A24.48,24.48,0,0,0,384.48,168Z" transform="translate(0 0.48)"/><path class="e" d="M384.48,168A24.48,24.48,0,0,0,360,143.52V168Z" transform="translate(0 0.48)"/><path class="c" d="M360,147a21,21,0,1,1-21,21,21,21,0,0,1,21-21m0-3a24,24,0,1,0,24,24,24,24,0,0,0-24-24Z" transform="translate(0 0.48)"/></g><g class="af"><path class="i" d="M360,95.52A24.48,24.48,0,0,0,335.52,120H360Z" transform="translate(0 0.48)"/><path class="h" d="M335.52,120A24.48,24.48,0,0,0,360,144.48V120Z" transform="translate(0 0.48)"/><path class="f" d="M360,120v24.48A24.48,24.48,0,0,0,384.48,120Z" transform="translate(0 0.48)"/><path class="e" d="M384.48,120A24.48,24.48,0,0,0,360,95.52V120Z" transform="translate(0 0.48)"/><path class="c" d="M360,99a21,21,0,1,1-21,21,21,21,0,0,1,21-21m0-3a24,24,0,1,0,24,24,24,24,0,0,0-24-24Z" transform="translate(0 0.48)"/></g><g class="ag"><path class="i" d="M360,47.52A24.48,24.48,0,0,0,335.52,72H360Z" transform="translate(0 0.48)"/><path class="g" d="M335.52,72A24.48,24.48,0,0,0,360,96.48V72Z" transform="translate(0 0.48)"/><path class="f" d="M360,72V96.48A24.48,24.48,0,0,0,384.48,72Z" transform="translate(0 0.48)"/><path class="e" d="M384.48,72A24.48,24.48,0,0,0,360,47.52V72Z" transform="translate(0 0.48)"/><path class="c" d="M360,51a21,21,0,1,1-21,21,21,21,0,0,1,21-21m0-3a24,24,0,1,0,24,24,24,24,0,0,0-24-24Z" transform="translate(0 0.48)"/></g><g class="ah"><path class="h" d="M360-.48A24.48,24.48,0,0,0,335.52,24H360Z" transform="translate(0 0.48)"/><path class="g" d="M335.52,24A24.48,24.48,0,0,0,360,48.48V24Z" transform="translate(0 0.48)"/><path class="f" d="M360,24V48.48A24.48,24.48,0,0,0,384.48,24Z" transform="translate(0 0.48)"/><path class="e" d="M384.48,24A24.48,24.48,0,0,0,360-.48V24Z" transform="translate(0 0.48)"/><path class="c" d="M360,3a21,21,0,1,1-21,21A21,21,0,0,1,360,3m0-3a24,24,0,1,0,24,24A24,24,0,0,0,360,0Z" transform="translate(0 0.48)"/></g><g class="ai"><path class="h" d="M385.18,16.56a24,24,0,0,0,8.72,26.85L408,24Z" transform="translate(0 0.48)"/><path class="e" d="M430.83,16.59A24,24,0,0,0,408,0V24Z" transform="translate(0 0.48)"/><path class="i" d="M408,0a24,24,0,0,0-22.82,16.56L408,24Z" transform="translate(0 0.48)"/><path class="f" d="M432,24a24,24,0,0,0-1.17-7.41L408,24l14.1,19.41A24,24,0,0,0,432,24Z" transform="translate(0 0.48)"/><path class="g" d="M393.9,43.41a24,24,0,0,0,28.21,0L408,24Z" transform="translate(0 0.48)"/><path class="c" d="M408,3a21,21,0,1,1-21,21A21,21,0,0,1,408,3m0-3a24,24,0,1,0,24,24A24,24,0,0,0,408,0Z" transform="translate(0 0.48)"/></g><path class="aj" d="M408,94.5A22.5,22.5,0,1,1,430.5,72,22.53,22.53,0,0,1,408,94.5Z" transform="translate(0 0.48)"/><path class="c" d="M408,51a21,21,0,1,1-21,21,21,21,0,0,1,21-21m0-3a24,24,0,1,0,24,24,24,24,0,0,0-24-24Z" transform="translate(0 0.48)"/></svg>