<svg id="Icons" xmlns="http://www.w3.org/2000/svg" viewBox="0 0 576 576"><defs><style>.cls-1{fill:gray;}.cls-2{fill:#fff;}.cls-3{fill:none;}</style></defs><title>sprites</title><path class="cls-1" d="M47.21,91.39,33,77.15a2.69,2.69,0,0,0-2.38-.75L28,73.79A15.8,15.8,0,1,0,25.79,76l2.61,2.61A2.69,2.69,0,0,0,29.15,81L43.39,95.21a2.7,2.7,0,0,0,3.82-3.82ZM15.78,76.48a12.7,12.7,0,1,1,12.7-12.7A12.71,12.71,0,0,1,15.78,76.48Z"/><polygon class="cls-2" points="96 197.7 90.3 192 72 210.3 53.7 192 48 197.7 66.3 216 48 234.3 53.7 240 72 221.7 90.3 240 96 234.3 77.7 216 96 197.7"/><path class="cls-2" d="M75.53,148.25l.68-4.25-9.62,6,7.25,8.72.68-4.23a15.7,15.7,0,1,1-16,7.35l-5.37-3.27a22,22,0,1,0,22.34-10.31Z"/><path id="Gray_Card" data-name="Gray Card" class="cls-1" d="M40,2a2,2,0,0,0-2-2H10A2,2,0,0,0,8,2V46a2,2,0,0,0,2,2H38a2,2,0,0,0,2-2ZM37,43H34v3H32V43H29V41h3V38h2v3h3Zm0-18H11V4H37Z"/><path id="White_Card" data-name="White Card" class="cls-2" d="M88,2a2,2,0,0,0-2-2H58a2,2,0,0,0-2,2V46a2,2,0,0,0,2,2H86a2,2,0,0,0,2-2ZM59,4H85V25H59Z"/><g id="Hamburger"><path class="cls-1" d="M44.7,108.59H3.3a3.3,3.3,0,1,1,0-6.59H44.7a3.3,3.3,0,1,1,0,6.59Z"/><path class="cls-1" d="M44.7,123.3H3.3a3.3,3.3,0,1,1,0-6.59H44.7a3.3,3.3,0,1,1,0,6.59Z"/><path class="cls-1" d="M44.7,138H3.3a3.3,3.3,0,1,1,0-6.59H44.7a3.3,3.3,0,1,1,0,6.59Z"/></g><rect id="_Slice_" data-name="&lt;Slice&gt;" class="cls-3" width="48" height="48"/><rect id="_Slice_2" data-name="&lt;Slice&gt;" class="cls-3" y="48" width="48" height="48"/><rect id="_Slice_3" data-name="&lt;Slice&gt;" class="cls-3" y="96" width="48" height="48"/><rect id="_Slice_4" data-name="&lt;Slice&gt;" class="cls-3" x="48" y="144" width="48" height="48"/><rect id="_Slice_5" data-name="&lt;Slice&gt;" class="cls-3" x="48" y="192" width="48" height="48"/><rect id="_Slice_6" data-name="&lt;Slice&gt;" class="cls-3" x="48" width="48" height="48"/></svg>