<svg xmlns="http://www.w3.org/2000/svg" xmlns:xlink="http://www.w3.org/1999/xlink" viewBox="0 0 48 48"><defs><style>.a{fill:none;}.b{clip-path:url(#a);}.c{fill:#bc1c13;}.d{fill:#1c1c1c;}.e{fill:#007da7;}.f{fill:#fff;}.g{clip-path:url(#b);}.h{fill:#0e781b;}.i{clip-path:url(#c);}</style><clipPath id="a"><circle class="a" cx="24" cy="24" r="24"/></clipPath><clipPath id="b"><circle class="a" cx="72" cy="72" r="24"/></clipPath><clipPath id="c"><circle class="a" cx="72" cy="24" r="24"/></clipPath></defs><title>ubr</title><g class="b"><path class="c" d="M24,.37A23.63,23.63,0,0,0,3.54,35.82L24,24Z"/><path class="d" d="M3.54,35.82a23.63,23.63,0,0,0,40.93,0L24,24Z"/><path class="e" d="M24,.37V24L44.46,35.82A23.63,23.63,0,0,0,24,.37Z"/><path class="f" d="M24,3A21,21,0,1,1,3,24,21,21,0,0,1,24,3m0-3A24,24,0,1,0,48,24,24,24,0,0,0,24,0Z"/></g><g class="g"><path class="h" d="M72,47.52A24.48,24.48,0,0,0,47.52,72H72Z"/></g><g class="i"><path class="c" d="M72-.48A24.48,24.48,0,0,0,47.52,24H72Z"/><path class="d" d="M47.52,24A24.48,24.48,0,0,0,72,48.48V24Z"/></g></svg>