<svg xmlns="http://www.w3.org/2000/svg" xmlns:xlink="http://www.w3.org/1999/xlink" viewBox="0 0 48 48"><defs><style>.a{fill:none;}.b{clip-path:url(#a);}.c{fill:#0e781b;}.d{fill:#bc1c13;}.e{fill:#1c1c1c;}.f{fill:#007da7;}.g{fill:#fff;}.h{clip-path:url(#b);}</style><clipPath id="a"><circle class="a" cx="24" cy="24" r="24"/></clipPath><clipPath id="b"><circle class="a" cx="24" cy="-24" r="24"/></clipPath></defs><title>ubrg</title><g class="b"><path class="c" d="M24-.48A24.48,24.48,0,0,0-.48,24H24Z"/><path class="d" d="M-.48,24A24.48,24.48,0,0,0,24,48.48V24Z"/><path class="e" d="M24,24V48.48A24.48,24.48,0,0,0,48.48,24Z"/><path class="f" d="M48.48,24A24.48,24.48,0,0,0,24-.48V24Z"/><path class="g" d="M24,3A21,21,0,1,1,3,24,21,21,0,0,1,24,3m0-3A24,24,0,1,0,48,24,24,24,0,0,0,24,0Z"/></g><g class="h"><path class="d" d="M-.48-24A24.48,24.48,0,0,0,24,.48V-24Z"/><path class="e" d="M24-24V.48A24.48,24.48,0,0,0,48.48-24Z"/></g></svg>