<svg xmlns="http://www.w3.org/2000/svg" xmlns:xlink="http://www.w3.org/1999/xlink" viewBox="0 0 48 48"><defs><style>.a{fill:none;}.b{clip-path:url(#a);}.c{fill:#0e781b;}.d{fill:#ffffdf;}.e{clip-path:url(#b);}.f{fill:#1c1c1c;}.g{fill:#007da7;}.h{fill:#fff;}.i{clip-path:url(#c);}</style><clipPath id="a"><circle class="a" cx="24" cy="72" r="24"/></clipPath><clipPath id="b"><circle class="a" cx="24" cy="24" r="24"/></clipPath><clipPath id="c"><circle class="a" cx="24" cy="-24" r="24"/></clipPath></defs><title>wubg</title><g class="b"><path class="c" d="M24,47.52A24.48,24.48,0,0,0-.48,72H24Z"/><path class="d" d="M48.48,72A24.48,24.48,0,0,0,24,47.52V72Z"/></g><g class="e"><path class="c" d="M24-.48A24.48,24.48,0,0,0-.48,24H24Z"/><path class="f" d="M-.48,24A24.48,24.48,0,0,0,24,48.48V24Z"/><path class="g" d="M24,24V48.48A24.48,24.48,0,0,0,48.48,24Z"/><path class="d" d="M48.48,24A24.48,24.48,0,0,0,24-.48V24Z"/><path class="h" d="M24,3A21,21,0,1,1,3,24,21,21,0,0,1,24,3m0-3A24,24,0,1,0,48,24,24,24,0,0,0,24,0Z"/></g><g class="i"><path class="f" d="M-.48-24A24.48,24.48,0,0,0,24,.48V-24Z"/><path class="g" d="M24-24V.48A24.48,24.48,0,0,0,48.48-24Z"/></g></svg>