<svg xmlns="http://www.w3.org/2000/svg" xmlns:xlink="http://www.w3.org/1999/xlink" viewBox="0 0 48 48"><defs><style>.a{fill:none;}.b{clip-path:url(#a);}.c{fill:#ffffdf;}.d{clip-path:url(#b);}.e{fill:#007da7;}.f{clip-path:url(#c);}.g{fill:#bc1c13;}.h{fill:#0e781b;}.i{fill:#1c1c1c;}.j{fill:#fff;}</style><clipPath id="a"><circle class="a" cx="-24" cy="72" r="24"/></clipPath><clipPath id="b"><circle class="a" cx="-24" cy="24" r="24"/></clipPath><clipPath id="c"><circle class="a" cx="24" cy="24" r="24"/></clipPath></defs><title>wubrg</title><g class="b"><path class="c" d="M.48,72A24.48,24.48,0,0,0-24,47.52V72Z"/></g><g class="d"><path class="e" d="M-24,24V48.48A24.48,24.48,0,0,0,.48,24Z"/><path class="c" d="M.48,24A24.48,24.48,0,0,0-24-.48V24Z"/></g><g class="f"><path class="g" d="M1.18,16.56A24,24,0,0,0,9.9,43.41L24,24Z"/><path class="c" d="M46.83,16.59A24,24,0,0,0,24,0V24Z"/><path class="h" d="M24,0A24,24,0,0,0,1.18,16.56L24,24Z"/><path class="e" d="M48,24a24,24,0,0,0-1.17-7.41L24,24,38.1,43.41A24,24,0,0,0,48,24Z"/><path class="i" d="M9.9,43.41a24,24,0,0,0,28.21,0L24,24Z"/><path class="j" d="M24,3A21,21,0,1,1,3,24,21,21,0,0,1,24,3m0-3A24,24,0,1,0,48,24,24,24,0,0,0,24,0Z"/></g></svg>