<svg xmlns="http://www.w3.org/2000/svg" xmlns:xlink="http://www.w3.org/1999/xlink" viewBox="0 0 48 48"><defs><style>.a{fill:none;}.b{clip-path:url(#a);}.c{fill:#bc1c13;}.d{fill:#007da7;}.e{fill:#ffffdf;}.f{fill:#fff;}</style><clipPath id="a"><circle class="a" cx="24" cy="24" r="24"/></clipPath></defs><title>wur</title><g class="b"><path class="c" d="M24,.37A23.63,23.63,0,0,0,3.54,35.82L24,24Z"/><path class="d" d="M3.54,35.82a23.63,23.63,0,0,0,40.93,0L24,24Z"/><path class="e" d="M24,.37V24L44.46,35.82A23.63,23.63,0,0,0,24,.37Z"/><path class="f" d="M24,3A21,21,0,1,1,3,24,21,21,0,0,1,24,3m0-3A24,24,0,1,0,48,24,24,24,0,0,0,24,0Z"/></g></svg>